<svg width="515" height="706" viewBox="0 0 515 706" fill="none" xmlns="http://www.w3.org/2000/svg">
<path d="M69.7233 214.815L59.3731 213.214C42.6566 210.636 30.2754 196.224 30.2754 179.312V146.231C30.2754 129.319 42.6175 114.907 59.3731 112.329L69.7233 110.727V214.815Z" fill="url(#paint0_linear_106_50)"/>
<path d="M444.673 214.815L455.024 213.214C471.74 210.636 484.121 196.224 484.121 179.312V146.231C484.121 129.319 471.779 114.907 455.024 112.329L444.673 110.727V214.815Z" fill="url(#paint1_linear_106_50)"/>
<path d="M137.488 351.867C136.355 367.451 125.263 368.662 112.803 398.228C96.9071 436.036 93.0013 472.75 84.4868 513.135C73.8632 563.519 44.0625 567.112 30.6659 564.339C6.5675 559.379 -4.52478 530.555 1.9978 499.582C26.1352 385.222 71.8713 331.128 116.084 331.558C124.286 331.597 138.581 336.674 137.488 351.867Z" fill="url(#paint2_linear_106_50)"/>
<path d="M376.909 351.867C378.042 367.451 389.134 368.662 401.593 398.228C417.49 436.036 421.395 472.75 429.91 513.135C440.533 563.519 470.334 567.112 483.731 564.339C507.829 559.379 518.921 530.555 512.399 499.582C488.261 385.222 442.525 331.128 398.312 331.558C390.11 331.597 375.815 336.674 376.909 351.867Z" fill="url(#paint3_linear_106_50)"/>
<path d="M418.856 393.659C418.856 421.546 416.279 447.089 411.475 470.133C411.006 472.476 410.459 474.82 409.951 477.124C387.962 571.526 327.892 622.652 257.237 622.652C186.583 622.652 126.473 571.526 104.523 477.124C103.976 474.82 103.469 472.515 103 470.133C98.196 447.05 95.6182 421.546 95.6182 393.659C95.6182 331.636 160.492 291.875 257.276 291.875C354.06 291.875 418.856 331.636 418.856 393.659Z" fill="url(#paint4_linear_106_50)"/>
<path d="M411.475 470.133C411.006 472.476 410.459 474.82 409.951 477.124C391.087 483.686 362.809 492.474 335.157 497.122V515.322L332.774 515.869C332.423 515.947 298.13 523.68 257.237 523.68C216.344 523.68 182.013 515.947 181.7 515.869L179.318 515.322V497.122C151.665 492.435 123.349 483.647 104.523 477.124C103.976 474.82 103.469 472.515 103 470.133C122.021 476.851 153.032 486.771 182.872 491.536L185.45 491.927V510.401C193.808 512.12 223.218 517.549 257.276 517.549C291.412 517.549 320.784 512.12 329.103 510.401V491.927L331.681 491.536C361.442 486.771 392.454 476.89 411.475 470.133Z" fill="url(#paint5_linear_106_50)"/>
<path d="M191.426 272.659V311.521C191.426 332.104 220.875 348.821 257.198 348.821C293.522 348.821 322.971 332.143 322.971 311.521V272.659H191.426Z" fill="url(#paint6_linear_106_50)"/>
<path d="M257.198 100.612C295.681 100.612 326.877 78.089 326.877 50.3058C326.877 22.5227 295.681 0 257.198 0C218.716 0 187.52 22.5227 187.52 50.3058C187.52 78.089 218.716 100.612 257.198 100.612Z" fill="url(#paint7_linear_106_50)"/>
<path d="M62.771 213.409C62.771 237.156 75.7771 258.989 96.6337 270.277C123.154 284.611 170.335 297.929 253.996 297.929C337.656 297.929 384.798 284.611 411.357 270.277C432.214 258.989 445.22 237.156 445.22 213.409V109.361C445.22 85.6137 432.214 63.7806 411.357 52.4931C384.838 38.159 337.656 24.8405 253.996 24.8405C170.335 24.8405 123.193 38.159 96.6337 52.4931C75.7771 63.7806 62.771 85.6137 62.771 109.361V213.409Z" fill="url(#paint8_linear_106_50)"/>
<path d="M257.198 279.064C173.655 279.064 130.731 265.355 109.483 253.833C95.1495 246.061 86.2444 231.102 86.2444 214.776V134.982C86.2444 118.656 95.1495 103.697 109.483 95.9247C130.77 84.4028 173.655 70.6937 257.198 70.6937C340.742 70.6937 383.666 84.4028 404.913 95.9247C419.247 103.697 428.152 118.656 428.152 134.982V214.815C428.152 231.141 419.247 246.1 404.913 253.873C383.666 265.355 340.742 279.064 257.198 279.064Z" fill="url(#paint9_radial_106_50)"/>
<path d="M201.893 176.5C201.893 190.873 190.254 183.726 175.92 183.726C161.547 183.726 149.947 190.873 149.947 176.5C149.947 162.127 161.586 150.527 175.92 150.527C190.293 150.488 201.893 162.127 201.893 176.5Z" fill="url(#paint10_radial_106_50)"/>
<path d="M278.016 219.502C278.016 225.243 275.672 230.438 271.923 234.227C268.173 237.976 262.94 240.32 257.198 240.32C245.715 240.32 236.381 230.985 236.381 219.502C236.381 218.682 236.732 217.94 237.24 217.393C237.787 216.846 238.529 216.534 239.349 216.534H275.008C276.688 216.534 278.016 217.862 278.016 219.502Z" fill="#54E0EF"/>
<path d="M364.176 176.5C364.176 190.873 352.537 183.726 338.203 183.726C323.869 183.726 312.23 190.873 312.23 176.5C312.23 162.127 323.869 150.527 338.203 150.527C352.537 150.527 364.176 162.127 364.176 176.5Z" fill="url(#paint11_radial_106_50)"/>
<path opacity="0.04" d="M418.857 393.659C418.857 421.546 416.279 447.089 411.475 470.133C411.006 472.476 410.459 474.82 409.951 477.124C387.962 571.526 327.892 622.652 257.237 622.652C224.195 622.652 193.418 611.442 167.835 589.883C192.363 595.585 218.375 593.437 242.513 586.25C300.63 568.948 348.827 521.454 367.067 463.649C383.588 411.195 374.995 351.594 345.155 305.545C391.204 322.184 418.857 353.156 418.857 393.659Z" fill="#383838"/>
<path opacity="0.49" d="M182.521 354.094C179.396 360.89 172.952 365.42 167.249 370.263C149.361 385.496 136.746 406.86 132.137 429.904C131.199 434.591 128.622 440.801 123.935 439.707C121.123 439.043 119.756 435.919 118.935 433.146C112.413 410.805 114.912 385.964 125.731 365.342C133.699 350.188 146.119 337.455 160.922 328.902C166.859 325.465 174.436 326.519 179.006 331.636C179.045 331.675 179.084 331.714 179.084 331.753C184.474 337.689 185.841 346.868 182.521 354.094Z" fill="white"/>
<path opacity="0.49" d="M150.884 67.1005C112.1 76.1618 91.8686 93.1127 82.0262 105.025C79.5265 107.993 74.7225 105.572 75.6599 101.822C80.7373 81.8251 94.3292 69.2486 108.038 61.5543C119.912 54.8755 133.035 50.8917 146.354 47.7671C151.236 46.6345 156.196 49.3294 157.875 54.0944C157.915 54.1725 157.915 54.2116 157.954 54.2897C159.906 59.7577 156.626 65.7725 150.884 67.1005Z" fill="white"/>
<path opacity="0.24" d="M257.198 706C308.321 706 349.764 696.75 349.764 685.339C349.764 673.928 308.321 664.677 257.198 664.677C206.076 664.677 164.632 673.928 164.632 685.339C164.632 696.75 206.076 706 257.198 706Z" fill="url(#paint12_radial_106_50)"/>
<defs>
<linearGradient id="paint0_linear_106_50" x1="25.5675" y1="162.774" x2="67.0914" y2="162.774" gradientUnits="userSpaceOnUse">
<stop stop-color="#E4E8EF"/>
<stop offset="1" stop-color="#A0A5B0"/>
</linearGradient>
<linearGradient id="paint1_linear_106_50" x1="439.957" y1="162.774" x2="481.481" y2="162.774" gradientUnits="userSpaceOnUse">
<stop stop-color="#A0A5B0"/>
<stop offset="1" stop-color="#E4E8EF"/>
</linearGradient>
<linearGradient id="paint2_linear_106_50" x1="-16.2651" y1="448.272" x2="128.357" y2="448.272" gradientUnits="userSpaceOnUse">
<stop stop-color="#E4E8EF"/>
<stop offset="1" stop-color="#A0A5B0"/>
</linearGradient>
<linearGradient id="paint3_linear_106_50" x1="360.446" y1="448.272" x2="505.068" y2="448.272" gradientUnits="userSpaceOnUse">
<stop stop-color="#A0A5B0"/>
<stop offset="1" stop-color="#E4E8EF"/>
</linearGradient>
<linearGradient id="paint4_linear_106_50" x1="257.198" y1="388.458" x2="257.198" y2="677.792" gradientUnits="userSpaceOnUse">
<stop stop-color="#E4E8EF"/>
<stop offset="1" stop-color="#A0A5B0"/>
</linearGradient>
<linearGradient id="paint5_linear_106_50" x1="257.198" y1="487.546" x2="257.198" y2="533.57" gradientUnits="userSpaceOnUse">
<stop stop-color="#A0A5B0"/>
<stop offset="0.9989" stop-color="#B6BABF"/>
</linearGradient>
<linearGradient id="paint6_linear_106_50" x1="257.198" y1="247.058" x2="257.198" y2="345.548" gradientUnits="userSpaceOnUse">
<stop offset="0.2056" stop-color="#E4E8EF"/>
<stop offset="1" stop-color="#A0A5B0"/>
</linearGradient>
<linearGradient id="paint7_linear_106_50" x1="257.198" y1="35.5166" x2="257.198" y2="1.93259" gradientUnits="userSpaceOnUse">
<stop stop-color="#A0A5B0"/>
<stop offset="1" stop-color="#E4E8EF"/>
</linearGradient>
<linearGradient id="paint8_linear_106_50" x1="253.991" y1="55.5573" x2="253.991" y2="294.426" gradientUnits="userSpaceOnUse">
<stop stop-color="#E4E8EF"/>
<stop offset="1" stop-color="#A0A5B0"/>
</linearGradient>
<radialGradient id="paint9_radial_106_50" cx="0" cy="0" r="1" gradientUnits="userSpaceOnUse" gradientTransform="translate(257.198 174.883) scale(181.427 103.849)">
<stop stop-color="#1F4760"/>
<stop offset="1" stop-color="#0E202B"/>
</radialGradient>
<radialGradient id="paint10_radial_106_50" cx="0" cy="0" r="1" gradientUnits="userSpaceOnUse" gradientTransform="translate(175.919 167.987) scale(22.1533 22.1533)">
<stop stop-color="#96F5FF"/>
<stop offset="1" stop-color="#54E0EF"/>
</radialGradient>
<radialGradient id="paint11_radial_106_50" cx="0" cy="0" r="1" gradientUnits="userSpaceOnUse" gradientTransform="translate(338.189 167.987) scale(22.1533)">
<stop stop-color="#96F5FF"/>
<stop offset="1" stop-color="#54E0EF"/>
</radialGradient>
<radialGradient id="paint12_radial_106_50" cx="0" cy="0" r="1" gradientUnits="userSpaceOnUse" gradientTransform="translate(257.198 685.306) scale(88.2873 16.8805)">
<stop offset="0.00112718" stop-opacity="0.8"/>
<stop offset="0.9286" stop-opacity="0"/>
</radialGradient>
</defs>
</svg>
